<mxfile host="app.diagrams.net" agent="Mozilla/5.0 (Windows NT 10.0; Win64; x64) AppleWebKit/537.36 (KHTML, like Gecko) Chrome/129.0.0.0 Safari/537.36" version="24.7.17">
  <diagram name="Sayfa -1" id="guLDC3nrbkvl5lSHYbDl">
    <mxGraphModel dx="1878" dy="951" grid="1" gridSize="10" guides="1" tooltips="1" connect="1" arrows="1" fold="1" page="1" pageScale="1" pageWidth="827" pageHeight="1169" math="0" shadow="0">
      <root>
        <mxCell id="0" />
        <mxCell id="1" parent="0" />
        <mxCell id="AP17fyyD9J3wbvn--3z3-19" value="" style="edgeStyle=orthogonalEdgeStyle;rounded=0;orthogonalLoop=1;jettySize=auto;html=1;" edge="1" parent="1" source="AP17fyyD9J3wbvn--3z3-1" target="AP17fyyD9J3wbvn--3z3-18">
          <mxGeometry relative="1" as="geometry" />
        </mxCell>
        <mxCell id="AP17fyyD9J3wbvn--3z3-1" value="&lt;font style=&quot;vertical-align: inherit;&quot;&gt;&lt;font style=&quot;vertical-align: inherit;&quot;&gt;Başla&lt;/font&gt;&lt;/font&gt;" style="ellipse;whiteSpace=wrap;html=1;" vertex="1" parent="1">
          <mxGeometry x="270" y="10" width="120" height="80" as="geometry" />
        </mxCell>
        <mxCell id="AP17fyyD9J3wbvn--3z3-21" value="" style="edgeStyle=orthogonalEdgeStyle;rounded=0;orthogonalLoop=1;jettySize=auto;html=1;" edge="1" parent="1" source="AP17fyyD9J3wbvn--3z3-18" target="AP17fyyD9J3wbvn--3z3-20">
          <mxGeometry relative="1" as="geometry" />
        </mxCell>
        <mxCell id="AP17fyyD9J3wbvn--3z3-18" value="ogrenciNo, sifre" style="shape=parallelogram;perimeter=parallelogramPerimeter;whiteSpace=wrap;html=1;fixedSize=1;" vertex="1" parent="1">
          <mxGeometry x="270" y="180" width="120" height="60" as="geometry" />
        </mxCell>
        <mxCell id="AP17fyyD9J3wbvn--3z3-22" style="edgeStyle=orthogonalEdgeStyle;rounded=0;orthogonalLoop=1;jettySize=auto;html=1;exitX=1;exitY=0.5;exitDx=0;exitDy=0;entryX=0;entryY=0.5;entryDx=0;entryDy=0;" edge="1" parent="1" source="AP17fyyD9J3wbvn--3z3-20" target="AP17fyyD9J3wbvn--3z3-24">
          <mxGeometry relative="1" as="geometry">
            <mxPoint x="440" y="350" as="targetPoint" />
          </mxGeometry>
        </mxCell>
        <mxCell id="AP17fyyD9J3wbvn--3z3-26" value="Hayır" style="edgeLabel;html=1;align=center;verticalAlign=middle;resizable=0;points=[];" vertex="1" connectable="0" parent="AP17fyyD9J3wbvn--3z3-22">
          <mxGeometry x="-0.1583" relative="1" as="geometry">
            <mxPoint y="-10" as="offset" />
          </mxGeometry>
        </mxCell>
        <mxCell id="AP17fyyD9J3wbvn--3z3-28" value="" style="edgeStyle=orthogonalEdgeStyle;rounded=0;orthogonalLoop=1;jettySize=auto;html=1;" edge="1" parent="1" source="AP17fyyD9J3wbvn--3z3-20" target="AP17fyyD9J3wbvn--3z3-27">
          <mxGeometry relative="1" as="geometry" />
        </mxCell>
        <mxCell id="AP17fyyD9J3wbvn--3z3-29" value="Evet" style="edgeLabel;html=1;align=center;verticalAlign=middle;resizable=0;points=[];" vertex="1" connectable="0" parent="AP17fyyD9J3wbvn--3z3-28">
          <mxGeometry x="-0.1333" relative="1" as="geometry">
            <mxPoint as="offset" />
          </mxGeometry>
        </mxCell>
        <mxCell id="AP17fyyD9J3wbvn--3z3-20" value="Ders programında bugün ders var mı?" style="rhombus;whiteSpace=wrap;html=1;" vertex="1" parent="1">
          <mxGeometry x="290" y="310" width="80" height="80" as="geometry" />
        </mxCell>
        <mxCell id="AP17fyyD9J3wbvn--3z3-23" value="Dur" style="ellipse;whiteSpace=wrap;html=1;" vertex="1" parent="1">
          <mxGeometry x="670" y="310" width="120" height="80" as="geometry" />
        </mxCell>
        <mxCell id="AP17fyyD9J3wbvn--3z3-25" style="edgeStyle=orthogonalEdgeStyle;rounded=0;orthogonalLoop=1;jettySize=auto;html=1;exitX=1;exitY=0.5;exitDx=0;exitDy=0;" edge="1" parent="1" source="AP17fyyD9J3wbvn--3z3-24" target="AP17fyyD9J3wbvn--3z3-23">
          <mxGeometry relative="1" as="geometry" />
        </mxCell>
        <mxCell id="AP17fyyD9J3wbvn--3z3-24" value="Okula gitme" style="rounded=0;whiteSpace=wrap;html=1;" vertex="1" parent="1">
          <mxGeometry x="450" y="320" width="120" height="60" as="geometry" />
        </mxCell>
        <mxCell id="AP17fyyD9J3wbvn--3z3-31" value="" style="edgeStyle=orthogonalEdgeStyle;rounded=0;orthogonalLoop=1;jettySize=auto;html=1;" edge="1" parent="1" source="AP17fyyD9J3wbvn--3z3-27" target="AP17fyyD9J3wbvn--3z3-30">
          <mxGeometry relative="1" as="geometry" />
        </mxCell>
        <mxCell id="AP17fyyD9J3wbvn--3z3-27" value="Okula git" style="whiteSpace=wrap;html=1;" vertex="1" parent="1">
          <mxGeometry x="270" y="480" width="120" height="60" as="geometry" />
        </mxCell>
        <mxCell id="AP17fyyD9J3wbvn--3z3-33" value="" style="edgeStyle=orthogonalEdgeStyle;rounded=0;orthogonalLoop=1;jettySize=auto;html=1;" edge="1" parent="1" source="AP17fyyD9J3wbvn--3z3-30" target="AP17fyyD9J3wbvn--3z3-32">
          <mxGeometry relative="1" as="geometry" />
        </mxCell>
        <mxCell id="AP17fyyD9J3wbvn--3z3-30" value="Dersin olduğu dersliğe gir" style="whiteSpace=wrap;html=1;" vertex="1" parent="1">
          <mxGeometry x="270" y="620" width="120" height="60" as="geometry" />
        </mxCell>
        <mxCell id="AP17fyyD9J3wbvn--3z3-35" value="" style="edgeStyle=orthogonalEdgeStyle;rounded=0;orthogonalLoop=1;jettySize=auto;html=1;" edge="1" parent="1" source="AP17fyyD9J3wbvn--3z3-32" target="AP17fyyD9J3wbvn--3z3-34">
          <mxGeometry relative="1" as="geometry" />
        </mxCell>
        <mxCell id="AP17fyyD9J3wbvn--3z3-37" value="Hayır" style="edgeLabel;html=1;align=center;verticalAlign=middle;resizable=0;points=[];" vertex="1" connectable="0" parent="AP17fyyD9J3wbvn--3z3-35">
          <mxGeometry x="-0.0111" relative="1" as="geometry">
            <mxPoint y="-10" as="offset" />
          </mxGeometry>
        </mxCell>
        <mxCell id="AP17fyyD9J3wbvn--3z3-39" value="" style="edgeStyle=orthogonalEdgeStyle;rounded=0;orthogonalLoop=1;jettySize=auto;html=1;" edge="1" parent="1" source="AP17fyyD9J3wbvn--3z3-32" target="AP17fyyD9J3wbvn--3z3-38">
          <mxGeometry relative="1" as="geometry" />
        </mxCell>
        <mxCell id="AP17fyyD9J3wbvn--3z3-41" value="Evet" style="edgeLabel;html=1;align=center;verticalAlign=middle;resizable=0;points=[];" vertex="1" connectable="0" parent="AP17fyyD9J3wbvn--3z3-39">
          <mxGeometry x="-0.2815" relative="1" as="geometry">
            <mxPoint as="offset" />
          </mxGeometry>
        </mxCell>
        <mxCell id="AP17fyyD9J3wbvn--3z3-32" value="Derste öğretmen var mı?" style="rhombus;whiteSpace=wrap;html=1;" vertex="1" parent="1">
          <mxGeometry x="290" y="750" width="80" height="80" as="geometry" />
        </mxCell>
        <mxCell id="AP17fyyD9J3wbvn--3z3-36" style="edgeStyle=orthogonalEdgeStyle;rounded=0;orthogonalLoop=1;jettySize=auto;html=1;" edge="1" parent="1" source="AP17fyyD9J3wbvn--3z3-34" target="AP17fyyD9J3wbvn--3z3-23">
          <mxGeometry relative="1" as="geometry" />
        </mxCell>
        <mxCell id="AP17fyyD9J3wbvn--3z3-34" value="Öğretmeni bekle" style="whiteSpace=wrap;html=1;" vertex="1" parent="1">
          <mxGeometry x="430" y="760" width="120" height="60" as="geometry" />
        </mxCell>
        <mxCell id="AP17fyyD9J3wbvn--3z3-40" style="edgeStyle=orthogonalEdgeStyle;rounded=0;orthogonalLoop=1;jettySize=auto;html=1;entryX=0.5;entryY=1;entryDx=0;entryDy=0;" edge="1" parent="1" source="AP17fyyD9J3wbvn--3z3-38" target="AP17fyyD9J3wbvn--3z3-23">
          <mxGeometry relative="1" as="geometry" />
        </mxCell>
        <mxCell id="AP17fyyD9J3wbvn--3z3-38" value="İzin isteyerek derse katıl" style="whiteSpace=wrap;html=1;" vertex="1" parent="1">
          <mxGeometry x="270" y="920" width="120" height="60" as="geometry" />
        </mxCell>
      </root>
    </mxGraphModel>
  </diagram>
</mxfile>
